<svg xmlns="http://www.w3.org/2000/svg" width="24" height="24"><path fill="#DD4B39" d="M.019 20.383l-.014-.179.014.179zm5.51-7.137c2.156.064 3.603-2.172 3.231-4.997-.373-2.824-2.423-5.09-4.58-5.155-2.157-.064-3.603 2.098-3.231 4.922.373 2.824 2.423 5.165 4.58 5.23zm18.471-7.246v-6h-24s.029 2.926.003 3.889c1.368-1.204 3.265-2.21 5.224-2.21h8.373l-1.874 1.585h-2.655c1.761.675 2.699 2.722 2.699 4.822 0 1.763-.979 3.28-2.364 4.358-1.351 1.052-1.607 1.493-1.607 2.388 0 .764 1.447 2.062 2.204 2.597 2.212 1.559 2.928 3.007 2.928 5.425 0 .385-.048.77-.142 1.147h11.211v-16.501h-4.5v4.5h-1.5v-4.5h-4.5v-1.5h4.5v-4.5h1.5v4.5h4.5zm-19.643 11.952l1.451-.014c-.636-.617-1.139-1.373-1.139-2.306 0-.553.177-1.086.425-1.559-.253.018-.511.023-.776.023-1.743 0-3.223-.564-4.317-1.497v6.305c1.251-.595 2.739-.952 4.356-.952zm-4.277 2.843l-.06-.39.06.39zm10.595 1.537c-.353-1.378-1.604-2.062-3.349-3.271-.635-.205-1.333-.325-2.083-.333-2.101-.022-4.139.91-5.243 2.163v3.109h10.714c.042-.261.063-.531.063-.807 0-.294-.036-.581-.102-.861zm0 0"/></svg>