<svg xmlns="http://www.w3.org/2000/svg" width="24" height="24"><path fill="#5FA9DD" d="M0 0v24h24v-24h-24zm19.642 8.012l.011.519c0 5.302-3.966 11.416-11.219 11.416-2.227 0-4.299-.664-6.044-1.803.309.037.623.056.94.056 1.847 0 3.547-.641 4.897-1.717-1.726-.033-3.182-1.193-3.683-2.787.241.047.487.072.742.072.36 0 .708-.049 1.039-.141-1.804-.369-3.163-1.99-3.163-3.934v-.051c.532.3 1.14.481 1.786.502-1.058-.72-1.754-1.948-1.754-3.34 0-.735.194-1.424.534-2.017 1.945 2.427 4.85 4.024 8.127 4.192-.067-.294-.102-.6-.102-.915 0-2.216 1.766-4.012 3.943-4.012 1.134 0 2.159.487 2.878 1.267.898-.18 1.742-.514 2.504-.974-.294.937-.919 1.724-1.733 2.22.797-.097 1.558-.312 2.264-.631-.528.805-1.197 1.512-1.967 2.078zm0 0"/></svg>