<svg xmlns="http://www.w3.org/2000/svg" width="16" height="16"><path fill="#DD4B39" d="M.013 13.589l-.009-.119.009.119zm3.673-4.758c1.438.043 2.402-1.448 2.154-3.331-.249-1.883-1.615-3.394-3.053-3.438-1.438-.042-2.402 1.399-2.154 3.282.248 1.883 1.615 3.444 3.053 3.487zm12.314-4.831v-4h-16s.019 1.951.002 2.593c.912-.803 2.177-1.473 3.483-1.473h5.582l-1.25 1.056h-1.77c1.174.45 1.799 1.814 1.799 3.214 0 1.175-.653 2.187-1.576 2.905-.9.703-1.071.997-1.071 1.593 0 .509.965 1.375 1.469 1.731 1.475 1.04 1.953 2.004 1.953 3.616 0 .258-.033.514-.095.766h7.474v-11.001h-3v3h-1v-3h-3v-1h3v-3h1v3h3zm-13.095 7.968l.967-.01c-.424-.412-.759-.916-.759-1.537 0-.369.118-.724.283-1.039l-.518.015c-1.161 0-2.148-.376-2.878-.997v4.203c.834-.397 1.827-.635 2.905-.635zm-2.852 1.895l-.04-.26.04.26zm7.064 1.025c-.235-.918-1.069-1.375-2.232-2.181-.424-.137-.889-.216-1.389-.221-1.401-.015-2.76.607-3.496 1.441v2.073h7.143c.028-.174.042-.354.042-.538 0-.196-.024-.388-.068-.574z"/></svg>