<svg xmlns="http://www.w3.org/2000/svg" width="16" height="16"><path fill="#5FA9DD" d="M0 0v16h16v-16h-16zm13.095 5.341l.007.346c0 3.535-2.644 7.61-7.479 7.61-1.485 0-2.867-.442-4.03-1.202.206.025.416.037.627.037 1.231 0 2.365-.428 3.264-1.145-1.15-.021-2.121-.795-2.455-1.858.161.033.325.049.495.049.24 0 .472-.032.693-.094-1.203-.246-2.109-1.326-2.109-2.622v-.034c.354.2.76.32 1.191.334-.706-.48-1.169-1.299-1.169-2.227 0-.49.129-.95.356-1.345 1.296 1.618 3.233 2.683 5.418 2.794-.045-.196-.068-.4-.068-.61 0-1.477 1.178-2.675 2.629-2.675.756 0 1.439.325 1.919.845.599-.12 1.161-.342 1.669-.649-.195.625-.612 1.149-1.154 1.479.531-.064 1.037-.208 1.509-.42-.354.539-.8 1.01-1.313 1.387z"/></svg>