<svg xmlns="http://www.w3.org/2000/svg" width="260.395" height="112"><path fill="#7BAFDE" d="M.005-29h70.463v140.999h-70.463z"/><path fill="#5DA9DD" d="M32.818-19.215c-.568-.672-1.214-1.28-1.927-1.802-.592-.433-1.233-.798-1.905-1.106-.796-.364-1.637-.644-2.52-.812-.666-.126-1.353-.197-2.055-.197-6.073 0-11.016 4.944-11.016 11.018 0 2.645.937 5.071 2.491 6.971 1.025 1.253 2.321 2.275 3.795 2.979l.493.202c1.306.548 2.733.863 4.235.863l.519-.025c5.833-.274 10.499-5.09 10.499-10.99.001-2.704-.985-5.18-2.609-7.101zm-7.334 13.245c-.35.062-.706.099-1.072.099-.426 0-.842-.042-1.242-.124-.859-.174-1.653-.529-2.344-1.016v.001c-.64-.449-1.192-1.016-1.624-1.669-.652-.985-1.032-2.168-1.032-3.435 0-3.442 2.8-6.243 6.242-6.243l.521.022c.271.023.533.068.792.127v-.001c1.377.296 2.587 1.038 3.463 2.079.169.201.319.415.462.637.633.976 1.004 2.135 1.004 3.379 0 3.077-2.238 5.634-5.17 6.144z"/><path fill="#61A2D8" d="M29.65-15.493c-.143-.222-.293-.436-.462-.637-.876-1.041-2.086-1.783-3.463-2.079v.001c-2.393 3.402-4.046 7.201-4.899 11.197.69.487 1.484.842 2.344 1.016.4.082.816.124 1.242.124.366 0 .723-.036 1.072-.099.09-.425.191-.847.303-1.267.78-2.935 2.079-5.725 3.863-8.256z"/><path fill="#7BAFDE" d="M67.977 26.007c-1.353-.206-2.706.129-3.808.939s-1.821 2.003-2.026 3.356c-.069.452-.091.904-.073 1.35l.765-.099c-.079-.543-.077-1.104.008-1.662l3.934.597c-.019.114-.022.229-.018.344 1.256-.295 2.495-.641 3.709-1.046v-2.205c-.559-.816-1.436-1.414-2.491-1.574zM46.504 76.889c-2.495 1.997-4.45 4.422-5.847 7.086 2.924.87 5.88 1.58 8.857 2.127.774-1.418 1.833-2.709 3.169-3.776 4.533-3.624 11.171-2.89 14.798 1.644.817 1.024 1.371 2.174 1.673 3.368.438-.022.875-.048 1.312-.078v-8.36c-6.133-6.879-16.682-7.836-23.962-2.011zM67.331 42.093c-3.447-.522-6.271-2.622-7.854-5.45-2.916.115-5.798-.1-8.609-.635 1.355 8.197 7.846 14.979 16.495 16.294 1.041.159 2.079.248 3.106.274v-10.384c-1.027.09-2.077.061-3.138-.099zM66.092 96.479c-3.271 2.615-8.062 2.084-10.677-1.187-.875-1.095-1.34-2.386-1.419-3.688l-1.214-.155c-.173 1.93.367 3.924 1.67 5.553 3.558 4.449 10.073 5.174 14.522 1.612.538-.43 1.035-.897 1.494-1.396v-5.177c-.477.029-.953.061-1.427.083-.505 1.662-1.495 3.19-2.949 4.355zM63.642 86.956c.128.16.244.329.345.501l.117.003c-.103-.175-.219-.347-.349-.509-1.14-1.424-2.823-2.157-4.521-2.154 1.659.028 3.294.765 4.408 2.159zM4.319 102.604c-1.672 0-3.19.664-4.313 1.735v7.661h9.683c.545-.928.874-2.001.874-3.15-.001-3.444-2.802-6.246-6.244-6.246zM50.724 99.98c-2.178-2.72-3.036-6.08-2.662-9.297-3.083-.586-6.138-1.338-9.161-2.254-1.85 6.709-.573 14.187 4.096 20.021 1.031 1.292 2.166 2.471 3.374 3.548h24.098v-8.612c-6.401 3.968-14.927 2.622-19.745-3.406z"/><path fill="#61A2D8" d="M37.491 58.896c-1.04-1.237-2.551-2.062-4.254-2.209v.004c-1.423 3.507-3.349 6.744-5.722 9.642h.001c.899 1.36 2.315 2.347 3.967 2.685 2.455-3.06 4.479-6.459 6.008-10.119v-.003zM6.48 49.802c.589-2.361.223-4.808-1.031-6.894-1.269-2.11-3.174-3.684-5.443-4.538l-.005-.001v5.429l.005.003c.533.434.991.962 1.353 1.564.598.995.771 2.161.492 3.283-.268 1.077-.919 1.989-1.844 2.59l-.007.003v.286l.005.011 2.33 3.874c2.085-1.255 3.558-3.245 4.145-5.61zM56.451 9.085c-3.233.314-6.396-.646-8.905-2.711-2.509-2.063-4.065-4.979-4.379-8.213-.24-2.458.492-4.866 2.062-6.772 1.57-1.911 3.788-3.094 6.247-3.331l-.463-4.754c-3.729.366-7.092 2.158-9.47 5.052-2.38 2.894-3.49 6.54-3.127 10.27.439 4.5 2.606 8.563 6.1 11.437 3.493 2.875 7.896 4.214 12.398 3.775 5.464-.534 10.22-3.171 13.555-7.028v-10.715c-1.2 6.807-6.808 12.287-14.018 12.99zM66.344-25.598c-1.675-1.377-3.493-2.513-5.409-3.402h-21.805c-3.791 1.567-7.229 3.897-10.145 6.877.672.309 1.313.674 1.905 1.106.712.521 1.357 1.13 1.927 1.802 4.216-4.107 9.656-6.65 15.6-7.231 5.408-.527 10.698 1.084 14.896 4.535 3.872 3.184 6.375 7.587 7.155 12.495v-11.884c-1.187-1.571-2.565-3.017-4.124-4.298zM23.02 13.379c2.15 5.167 5.442 9.812 9.709 13.626 3.464 7.68 4.251 16.244 2.183 24.542l-.137.531h.009c1.625.308 3.125.973 4.417 1.913.119-.429.236-.857.343-1.29 1.734-6.969 1.685-14.1-.066-20.863 2.312 1.304 4.74 2.352 7.25 3.133-.148-1.637-.131-3.314.075-5.009-3.528-1.271-6.848-3.149-9.827-5.603l-.349-.292c-.575-1.193-1.205-2.368-1.896-3.513-2.178-3.627-4.747-6.928-7.643-9.866-1.06-2.761-1.75-5.682-2.046-8.703-.102-1.042-.133-2.08-.111-3.109l-.519.025c-1.502 0-2.93-.315-4.235-.863-.064 1.459-.03 2.932.115 4.412.089.901.21 1.801.358 2.689-5.397-3.925-11.552-6.812-18.222-8.474-.805-.202-1.615-.382-2.423-.544h-.005v4.878h.005c.425.094.846.191 1.269.296 8.323 2.074 15.766 6.247 21.746 12.084zM67.078 31.717c.263.354.646.587 1.082.653.678.103 1.352-.062 1.904-.471.151-.112.282-.243.403-.383v-1.73c-1.215.405-2.453.751-3.709 1.046.019.315.127.621.32.885zM59.477 36.643c-.803-1.429-1.291-3.046-1.377-4.743-2.518.011-5.001-.26-7.418-.805-.146 1.672-.077 3.318.186 4.913 2.811.535 5.693.75 8.609.635zM63.876 34.074c-.558-.757-.909-1.62-1.042-2.521l-.765.099c.079 1.74.817 3.354 2.001 4.546.672-.098 1.337-.214 1.998-.339-.862-.394-1.616-1.002-2.192-1.785zM43.521 73.161c-3.245 2.597-5.736 5.792-7.445 9.303-4.376-1.579-8.592-3.51-12.624-5.776 1.607-1.18 3.125-2.459 4.535-3.826-1.474-.703-2.77-1.729-3.796-2.979-1.601 1.504-3.345 2.874-5.217 4.099-2.699-1.748-5.306-3.651-7.813-5.715-1.952-1.604-3.822-3.285-5.607-5.039.678-.287 1.337-.623 1.979-1.009 8.887-5.344 11.769-16.92 6.427-25.805-3.127-5.201-8.078-8.885-13.952-10.389l-.005-.004v4.969l.005.005c4.131 1.353 7.6 4.113 9.861 7.877 3.986 6.631 1.835 15.271-4.797 19.258-1.011.607-2.083 1.025-3.177 1.27-.643-.713-1.271-1.438-1.888-2.174l-.007-.01v7.220000000000001h.047c2.522 2.655 5.218 5.164 8.081 7.521 1.979 1.625 4.017 3.158 6.106 4.602-4.583 1.98-9.47 2.722-14.229 2.317h-.005v4.81h.005c6.547.48 13.073-.922 18.918-4.109 4.896 2.939 10.054 5.398 15.443 7.348-2.338 8.195-.813 17.366 4.903 24.512l.47.566h6.631c-1.208-1.077-2.342-2.256-3.374-3.548-4.669-5.836-5.945-13.312-4.096-20.022 3.023.916 6.078 1.67 9.161 2.256-.374 3.217.484 6.576 2.662 9.297 4.817 6.025 13.344 7.371 19.744 3.406v-6.17c-.458.497-.956.967-1.494 1.396-4.449 3.562-10.965 2.837-14.522-1.612-1.303-1.629-1.843-3.623-1.67-5.553l1.214.156c.079 1.302.544 2.593 1.419 3.688 2.617 3.27 7.405 3.803 10.677 1.186 1.454-1.162 2.444-2.69 2.949-4.353.474-.022.95-.054 1.427-.083v-4.784c-.438.03-.875.056-1.312.078-.302-1.194-.855-2.344-1.673-3.368-3.627-4.533-10.265-5.268-14.798-1.644-1.336 1.067-2.395 2.358-3.169 3.776-2.979-.547-5.935-1.256-8.857-2.127 1.396-2.664 3.352-5.088 5.847-7.086 7.279-5.824 17.828-4.867 23.963 2.01v-6.393c-7.906-5.713-18.968-5.73-26.947.652zm19.589 19.589c-.479.384-1.049.579-1.618.605-.913.084-1.848-.274-2.462-1.043l-.164-.248.119.006-.007-.012c1.554.1 3.11.154 4.67.172-.16.187-.34.362-.538.52zm-7.556-6.695c1.084-.867 2.39-1.277 3.682-1.258 1.696-.003 3.38.73 4.521 2.154.129.162.246.334.349.509l-.117-.003.005.007c-2.279-.011-4.55-.114-6.812-.312l-.809-1.016c-.313.26-.6.535-.852.836l-.1-.01-.014.014-.746-.084c.272-.294.568-.578.893-.837z"/><path fill="#5DA9DD" d="M46.897 29.25l-.096.712c-.206 1.694-.224 3.372-.075 5.009.973 10.595 9.058 19.595 20.038 21.264 1.241.188 2.478.292 3.703.322v-3.979c-1.027-.026-2.065-.115-3.106-.274-8.648-1.313-15.139-8.097-16.495-16.294-.263-1.595-.331-3.241-.186-4.913.037-.415.085-.829.148-1.245 1.275-8.383 9.128-14.166 17.51-12.894.738.112 1.447.293 2.128.531v-4.149c-.501-.127-1.01-.236-1.531-.312-10.548-1.605-20.434 5.673-22.038 16.222zM61.811 23.742c-1.957 1.441-3.235 3.558-3.602 5.961-.112.744-.147 1.478-.11 2.196.086 1.697.574 3.314 1.377 4.743 1.583 2.828 4.407 4.928 7.854 5.45 1.061.16 2.11.189 3.137.1v-4.006c-.825.106-1.677.105-2.54-.024-1.521-.232-2.851-.946-3.857-1.964-1.185-1.191-1.923-2.806-2.001-4.546-.018-.445.003-.897.073-1.35.205-1.354.925-2.547 2.026-3.356 1.103-.811 2.455-1.146 3.808-.939 1.055.16 1.934.758 2.491 1.574v-4.961c-.599-.256-1.232-.445-1.894-.546-2.404-.367-4.804.228-6.762 1.668zM68.16 32.37c-.436-.066-.819-.3-1.082-.653-.193-.264-.302-.569-.319-.885-.005-.114 0-.229.018-.344l-3.934-.597c-.085.558-.087 1.119-.008 1.662.133.9.484 1.764 1.042 2.521.576.783 1.33 1.391 2.192 1.785.47.213.973.363 1.494.441.99.15 1.978.07 2.905-.214v-4.57c-.121.14-.252.271-.403.383-.553.409-1.228.574-1.905.471zM4.319 97.831c-1.529 0-2.986.313-4.313.882l-.005.001v5.632l.005-.006c1.123-1.072 2.642-1.734 4.313-1.734 3.442 0 6.243 2.802 6.243 6.244 0 1.149-.329 2.224-.874 3.15h5.176c.301-.998.471-2.055.471-3.15-.001-6.075-4.943-11.019-11.016-11.019z"/><path d="M61.466 33.524c-.294 12.836-1.128 26.359-5.408 37.718-3.195 8.111-9.365 15.466-16.593 21.269-1.23.981-1.845 1.599-3.689 2.214-.638-.199-2.112-.887-2.706-1.231-4.521-3.538-7.989-6.884-12.417-12.293-3.442-5.531-6.169-9.906-7.498-15.366-2.755-9.835-4.18-21.095-4.131-32.309l52.442-.002z"/><g fill="#FFD520"><path d="M60.557 34.215c-.195 10.82-.981 21.783-3.54 31.668-2.163 8.209-6.932 15.588-13.274 21.686-2.018 1.82-3.935 3.49-5.852 5.264l-.099-.247.345-16.325c.199-2.953-.246-6.836 2.557-9.099.64-.246.64 1.082 1.279.493 1.819-1.623 3.738-3.297 5.556-4.818-.245-.396-.541-.887-.395-1.281 2.461-2.16 5.166-4.375 7.722-6.391.047-.1-.048-.198-.149-.149-1.475.543-3.195.937-4.472-.243-.196-.149-.148-.445-.394-.64-.59-.049-.887.735-1.377.883-1.229.984-2.706 1.428-4.034 2.262-1.277-.441-2.214-1.671-2.852-2.801-2.559-5.213-1.278-12 2.409-16.276 1.132-1.327 2.408-2.312 3.786-3.1.1-.146-.049-.247-.146-.295-11.457.589-21.833 8.704-26.653 18.934-1.376 3.048-2.262 6.294-2.508 9.686.443.101.786-.393 1.18-.638 3.294-2.02 6.147-5.656 10.624-4.868 1.866.539 3.589 1.423 5.211 2.606.244.291.689.688.541 1.08-1.868 1.968-2.9 4.623-3.098 7.326.146 5.853.394 11.409.59 17.407.197 2.115.197 4.28.295 6.441h-.146c-5.951-4.916-11.755-10.228-15.246-16.914-5.163-8.459-6.54-18.345-7.868-28.473-.442-4.426-.491-8.803-.591-13.178h50.599zM49.126 57.229c-.048.638-.689 1.033-.935 1.572-.491.689-.59 1.672-1.28 2.213-.146-1.326.493-2.558 1.429-3.492-.048-.196-.246 0-.396 0-.933.345-1.816.149-2.849.101l-.1-.101c.936-.539 2.164-.293 3.146-.735.346-.002 1.034-.15.985.442zM35.408 67.16l.098.146c.934-.638 2.017-1.13 3.246-1.031.539.099.981.295 1.475.492-.981.539-2.211 0-3.197.492-.785 0-1.475 1.523-2.161.441-.297-.838 0-1.721.146-2.607.346-.98.442-2.063 1.033-3-.002 1.675-.493 3.396-.64 5.067zM37.423 73.751c.147.243.049.54.1.785-1.279-1.771-3.05-3.099-3.837-5.162l-.048-.837c1.327 1.722 2.998 3.197 3.785 5.214zM37.423 81.715c-1.081-.982-2.162-2.014-3.096-3.146-.347-.59-.738-1.18-.689-1.867 1.277 1.523 3.636 2.802 3.785 5.013zM37.274 89.535c-.488-.246-.835-.98-1.425-1.376-.935-.839-1.967-1.821-1.869-3.147 1.23 1.377 3.247 2.556 3.294 4.523z"/></g><path d="M89.527 34.999l.137 3.235h-.388c-.073-.568-.175-.977-.303-1.218-.21-.393-.488-.686-.835-.87-.347-.186-.804-.28-1.37-.28h-1.933v10.55c0 .844.094 1.371.28 1.58.263.282.667.424 1.213.424h.487v.38h-5.913v-.38h.496c.594 0 1.011-.174 1.26-.527.148-.213.227-.708.227-1.477v-10.55h-1.66c-.644 0-1.103.048-1.374.143-.353.129-.656.376-.906.743-.25.365-.398.861-.447 1.482h-.386l.136-3.235h11.279zM94.574 35.758v5.423h2.983c.788 0 1.312-.116 1.577-.351.355-.308.551-.851.591-1.628h.381v4.8h-.381c-.095-.675-.188-1.106-.284-1.296-.124-.238-.323-.424-.602-.562-.278-.136-.706-.203-1.282-.203h-2.983v4.551c0 .612.026.985.08 1.118.054.133.148.236.282.314.135.079.392.117.768.117h2.322c.774 0 1.335-.053 1.688-.162.348-.109.686-.325 1.008-.644.418-.421.845-1.057 1.282-1.905h.434l-1.186 3.469h-10.61v-.38h.49c.327 0 .635-.074.929-.231.217-.11.365-.273.444-.491.077-.219.118-.662.118-1.337v-8.948c0-.878-.089-1.418-.266-1.626-.245-.271-.653-.407-1.225-.407h-.49v-.38h10.63l.136 3.037h-.408c-.143-.729-.298-1.229-.472-1.502-.171-.271-.426-.479-.763-.623-.27-.101-.745-.153-1.426-.153h-3.765zM114.914 45.005l.326.071-1.192 3.724h-10.685v-.38h.519c.581 0 .997-.187 1.248-.566.144-.213.213-.712.213-1.493v-8.922c0-.857-.095-1.397-.283-1.614-.265-.296-.657-.445-1.178-.445h-.519v-.38h6.21v.38c-.725-.007-1.23.062-1.521.202-.292.141-.49.316-.597.533-.106.215-.161.728-.161 1.543v8.693c0 .564.055.953.164 1.165.081.143.208.25.375.315.172.069.703.102 1.596.102h1.01c1.063 0 1.81-.079 2.238-.231.428-.154.82-.43 1.173-.828.358-.394.711-1.017 1.064-1.869zM120.017 35.758v5.423h2.983c.786 0 1.312-.116 1.579-.351.353-.308.55-.851.59-1.628h.38v4.8h-.38c-.094-.675-.189-1.106-.284-1.296-.123-.238-.324-.424-.602-.562-.279-.136-.707-.203-1.283-.203h-2.983v4.551c0 .612.026.985.081 1.118.053.133.148.236.282.314.135.079.391.117.768.117h2.321c.774 0 1.335-.053 1.686-.162s.688-.325 1.011-.644c.417-.421.844-1.057 1.28-1.905h.436l-1.187 3.469h-10.609v-.38h.49c.325 0 .636-.074.928-.231.219-.11.366-.273.445-.491.077-.219.116-.662.116-1.337v-8.948c0-.878-.088-1.418-.266-1.626-.244-.271-.653-.407-1.224-.407h-.49v-.38h10.629l.136 3.037h-.406c-.144-.729-.3-1.229-.472-1.502-.171-.271-.426-.479-.763-.623-.271-.101-.747-.153-1.429-.153h-3.763zM136.913 48.8l-5.342-11.612v9.229c0 .844.093 1.371.277 1.58.254.282.656.424 1.207.424h.496v.38h-4.855v-.38h.496c.592 0 1.01-.174 1.257-.527.151-.213.227-.708.227-1.477v-9.032c0-.608-.068-1.047-.206-1.315-.096-.198-.273-.361-.53-.49-.258-.133-.673-.199-1.243-.199v-.38h3.985l4.972 10.749 4.921-10.749h3.91v.38h-.485c-.6 0-1.021.177-1.269.524-.15.219-.227.712-.227 1.479v9.032c0 .844.097 1.371.288 1.58.256.282.658.424 1.208.424h.483v.38h-5.91v-.38h.494c.599 0 1.018-.174 1.259-.527.15-.213.227-.708.227-1.477v-9.229l-5.315 11.613h-.325zM156.486 44.191h-5.399l-.943 2.169c-.23.534-.347.935-.347 1.198 0 .211.1.394.299.552.201.16.632.265 1.296.31v.38h-4.346v-.38c.577-.101.95-.231 1.118-.396.346-.328.729-.992 1.148-1.999l4.935-11.324h.326l4.815 11.468c.386.919.737 1.519 1.053 1.792s.753.428 1.315.46v.38h-5.444v-.38c.55-.027.921-.117 1.114-.272.192-.156.29-.347.29-.569 0-.299-.137-.771-.408-1.412l-.822-1.977zm-.316-.759l-2.326-5.57-2.428 5.57h4.754zM176.012 48.8h-3.697l-4.688-6.454c-.34.015-.615.022-.829.022l-.278-.005-.308-.018v4.015c0 .868.096 1.407.285 1.614.256.297.642.445 1.155.445h.539v.38h-5.91v-.38h.518c.581 0 .997-.188 1.248-.568.143-.208.214-.707.214-1.491v-8.922c0-.865-.095-1.403-.285-1.614-.263-.296-.656-.445-1.177-.445h-.518v-.38h5.026c1.464 0 2.544.106 3.24.321.695.212 1.285.607 1.771 1.18.485.574.729 1.258.729 2.055 0 .849-.277 1.582-.83 2.209-.552.622-1.408 1.066-2.568 1.325l2.857 3.948c.651.909 1.209 1.515 1.679 1.812.467.303 1.077.493 1.829.571v.38h-.002zm-9.8-7.103l.332.004.232.005c1.303 0 2.283-.284 2.946-.851.659-.569.99-1.292.99-2.172 0-.857-.269-1.555-.801-2.092-.534-.537-1.239-.807-2.119-.807-.389 0-.917.071-1.581.219v5.694h.001zM182.075 41.128l5.095 5.047c.83.854 1.538 1.432 2.126 1.733.586.301 1.174.473 1.761.512v.38h-6.573v-.38c.393 0 .677-.064.85-.196.172-.134.258-.28.258-.44 0-.165-.032-.31-.097-.44-.064-.128-.277-.369-.636-.722l-4.757-4.707v4.446c0 .699.044 1.157.134 1.383.069.168.215.314.434.435.295.164.607.242.938.242h.476v.38h-5.911v-.38h.49c.568 0 .983-.163 1.244-.496.162-.215.244-.739.244-1.563v-8.922c0-.694-.045-1.159-.132-1.392-.068-.161-.208-.303-.419-.425-.299-.164-.613-.243-.938-.243h-.49v-.38h5.911v.38h-.476c-.322 0-.635.077-.938.234-.212.108-.36.267-.443.485-.083.217-.124.664-.124 1.34v4.229c.135-.129.601-.561 1.395-1.291 2.011-1.846 3.228-3.078 3.646-3.694.185-.271.275-.51.275-.714 0-.155-.071-.294-.213-.411-.144-.118-.384-.179-.723-.179h-.315v-.38h5.074v.38c-.299.007-.57.047-.812.122-.245.077-.543.223-.895.437-.354.216-.788.562-1.304 1.039-.148.136-.834.824-2.06 2.07l-2.095 2.081zM81.645 59.729v5.273h2.452c.558 0 .965-.124 1.224-.37.261-.248.431-.737.517-1.475h.369v4.532h-.369c-.007-.517-.073-.898-.202-1.141-.126-.242-.305-.425-.531-.549-.227-.121-.562-.182-1.008-.182h-2.452v4.219c0 .677.043 1.124.128 1.34.065.167.202.309.411.426.288.158.59.236.904.236h.479v.369h-5.747v-.369h.477c.555 0 .958-.16 1.209-.484.16-.211.239-.716.239-1.518v-8.676c0-.68-.044-1.125-.128-1.342-.067-.162-.202-.309-.407-.427-.285-.155-.59-.235-.913-.235h-.477v-.366h9.991l.133 2.953h-.343c-.173-.625-.374-1.086-.604-1.379s-.512-.504-.845-.64c-.334-.132-.85-.196-1.549-.196h-2.958zM98.446 58.99h4.682v.369h-.257c-.171 0-.421.076-.751.229-.33.151-.629.37-.9.654-.269.281-.602.748-.998 1.388l-3.227 5.041v3.418c0 .822.094 1.336.278 1.537.254.276.656.415 1.203.415h.441v.369h-5.748v-.369h.481c.575 0 .982-.171 1.224-.512.146-.213.221-.689.221-1.44v-3.137l-3.68-5.681c-.437-.652-.73-1.062-.886-1.224-.153-.165-.477-.36-.964-.591-.131-.066-.321-.1-.572-.1v-.366h5.728v.369h-.297c-.312 0-.596.072-.859.218-.26.146-.389.362-.389.651 0 .237.201.666.607 1.285l2.774 4.324 2.65-4.137c.396-.621.593-1.081.593-1.385 0-.185-.047-.35-.144-.493-.096-.146-.232-.259-.41-.343-.178-.08-.445-.123-.801-.123l.001-.366zM115.042 68.719l.315.068-1.159 3.623h-10.388v-.369h.503c.566 0 .97-.186 1.214-.55.139-.208.208-.693.208-1.452v-8.676c0-.836-.092-1.357-.276-1.569-.256-.288-.639-.435-1.146-.435h-.503v-.369h6.038v.369c-.703-.006-1.196.059-1.478.197-.283.137-.477.311-.581.521-.105.208-.156.707-.156 1.496v8.457c0 .549.052.924.159 1.13.08.139.202.24.367.308.166.066.682.099 1.549.099h.982c1.032 0 1.759-.074 2.175-.227.417-.15.798-.42 1.143-.802.345-.386.69-.991 1.034-1.819zM121.839 64.951l4.956 4.904c.807.83 1.495 1.394 2.064 1.687.571.294 1.144.459 1.714.499v.369h-6.392v-.369c.382 0 .657-.064.825-.193.168-.127.252-.271.252-.43s-.031-.3-.094-.425-.269-.359-.617-.704l-4.625-4.575v4.325c0 .677.043 1.124.13 1.34.066.167.207.309.421.426.288.158.593.236.912.236h.462v.369h-5.749v-.369h.479c.555 0 .958-.16 1.21-.484.158-.211.237-.716.237-1.518v-8.676c0-.68-.043-1.129-.128-1.352-.065-.16-.203-.299-.408-.417-.291-.155-.595-.235-.911-.235h-.479v-.369h5.749v.369h-.462c-.313 0-.618.076-.912.228-.208.104-.352.265-.43.476-.081.209-.121.646-.121 1.302v4.112c.132-.127.583-.545 1.354-1.259 1.956-1.794 3.139-2.989 3.548-3.592.178-.265.268-.494.268-.692 0-.151-.07-.281-.208-.398-.139-.116-.374-.176-.702-.176h-.308v-.37h4.934v.369c-.29.008-.553.049-.79.121-.236.071-.527.213-.871.422-.343.209-.765.548-1.266 1.013-.146.13-.812.803-2.002 2.013l-2.04 2.023zM134.625 59.729v5.273h2.899c.766 0 1.277-.115 1.535-.345.344-.298.534-.824.575-1.582h.37v4.665h-.37c-.093-.651-.184-1.071-.277-1.258-.119-.23-.313-.414-.584-.547-.271-.129-.687-.196-1.248-.196h-2.899v4.428c0 .595.026.954.078 1.084.052.127.144.231.273.308.133.074.38.112.746.112h2.258c.753 0 1.298-.053 1.641-.157.339-.104.667-.312.98-.625.406-.408.821-1.027 1.248-1.854h.421l-1.151 3.374h-10.317v-.369h.478c.317 0 .617-.075.902-.228.211-.104.355-.265.433-.479.075-.21.113-.643.113-1.297v-8.7c0-.854-.086-1.383-.259-1.581-.237-.266-.634-.398-1.189-.398h-.478v-.367h10.336l.13 2.953h-.396c-.139-.711-.289-1.195-.457-1.461-.167-.264-.415-.467-.744-.604-.262-.1-.724-.148-1.387-.148h-3.66v-.001zM152.001 58.7v4.643h-.369c-.118-.893-.33-1.602-.635-2.129-.308-.528-.742-.946-1.308-1.257-.564-.309-1.149-.465-1.754-.465-.685 0-1.251.208-1.695.626-.449.419-.672.896-.672 1.428 0 .408.143.781.425 1.116.407.493 1.376 1.15 2.907 1.974 1.25.675 2.104 1.188 2.563 1.548.46.358.812.778 1.061 1.268.25.486.372.997.372 1.529 0 1.014-.394 1.889-1.181 2.621-.788.732-1.8 1.1-3.039 1.1-.389 0-.754-.03-1.097-.088-.205-.034-.628-.154-1.271-.363s-1.048-.314-1.221-.314c-.165 0-.294.051-.389.151-.097.099-.167.304-.215.614h-.368v-4.587h.368c.17.962.401 1.681.69 2.157.291.479.732.875 1.328 1.191.596.314 1.249.473 1.96.473.823 0 1.473-.217 1.951-.651.476-.438.714-.952.714-1.548 0-.33-.091-.663-.271-1-.179-.336-.46-.648-.839-.94-.255-.198-.956-.614-2.104-1.252-1.147-.636-1.962-1.146-2.449-1.526-.486-.384-.854-.804-1.105-1.266-.252-.463-.378-.969-.378-1.521 0-.963.37-1.789 1.106-2.487.739-.692 1.676-1.041 2.815-1.041.713 0 1.466.174 2.264.522.368.159.626.241.779.241.171 0 .311-.049.42-.151.109-.1.196-.307.262-.612h.371v-.004zM160.091 64.951l4.954 4.904c.809.83 1.497 1.394 2.066 1.687.571.294 1.142.459 1.713.499v.369h-6.393v-.369c.383 0 .657-.064.826-.193.169-.127.253-.271.253-.43s-.031-.3-.095-.425c-.062-.125-.269-.359-.618-.704l-4.625-4.575v4.325c0 .677.044 1.124.131 1.34.067.167.206.309.42.426.289.158.593.236.912.236h.461v.369h-5.747v-.369h.478c.554 0 .958-.16 1.209-.484.158-.211.237-.716.237-1.518v-8.676c0-.68-.042-1.129-.129-1.352-.065-.16-.202-.299-.405-.417-.292-.155-.597-.235-.912-.235h-.478v-.369h5.747v.369h-.461c-.312 0-.617.076-.912.228-.206.104-.35.265-.43.476-.081.209-.121.646-.121 1.302v4.112l1.354-1.259c1.957-1.794 3.14-2.989 3.548-3.592.179-.265.268-.494.268-.692 0-.151-.069-.281-.208-.398-.139-.116-.374-.176-.703-.176h-.307v-.37h4.935v.369c-.291.008-.554.049-.792.121-.235.071-.525.213-.869.422s-.766.548-1.267 1.013c-.146.13-.812.803-2.001 2.013l-2.039 2.023zM176.05 58.7c1.735 0 3.241.661 4.513 1.979 1.273 1.318 1.909 2.967 1.909 4.94 0 2.035-.641 3.724-1.924 5.065-1.282 1.345-2.834 2.014-4.657 2.014-1.843 0-3.389-.655-4.641-1.965-1.255-1.31-1.881-3.006-1.881-5.086 0-2.125.724-3.859 2.17-5.2 1.258-1.165 2.76-1.747 4.511-1.747zm-.189.712c-1.193 0-2.152.447-2.875 1.333-.899 1.106-1.35 2.728-1.35 4.856 0 2.186.466 3.866 1.399 5.045.714.895 1.66 1.343 2.835 1.343 1.254 0 2.292-.489 3.107-1.474.817-.979 1.227-2.524 1.227-4.639 0-2.289-.45-3.999-1.351-5.124-.72-.891-1.718-1.34-2.992-1.34zM191.559 72.41l-5.195-11.291v8.97c0 .822.092 1.336.271 1.537.247.276.638.415 1.173.415h.481v.369h-4.721v-.369h.481c.576 0 .982-.171 1.222-.512.148-.213.223-.689.223-1.44v-8.776c0-.595-.068-1.019-.201-1.282-.094-.188-.267-.351-.517-.478-.251-.129-.653-.193-1.208-.193v-.37h3.874l4.836 10.451 4.781-10.451h3.803v.369h-.47c-.583 0-.993.172-1.231.514-.148.212-.222.689-.222 1.438v8.777c0 .822.094 1.336.28 1.537.247.277.638.415 1.173.415h.47v.369h-5.746v-.369h.48c.582 0 .989-.171 1.223-.513.147-.211.222-.688.222-1.439v-8.97l-5.168 11.291-.314.001zM209.562 72.41l-5.193-11.291v8.97c0 .822.09 1.336.27 1.537.247.276.638.415 1.173.415h.481v.369h-4.719v-.369h.48c.575 0 .982-.171 1.222-.512.147-.213.222-.689.222-1.44v-8.776c0-.595-.068-1.019-.2-1.282-.093-.188-.266-.351-.516-.478-.25-.129-.654-.193-1.208-.193v-.37h3.873l4.836 10.451 4.782-10.451h3.804v.369h-.471c-.582 0-.994.172-1.232.514-.147.212-.223.689-.223 1.438v8.777c0 .822.095 1.336.281 1.537.247.277.639.415 1.174.415h.471v.369h-5.748v-.369h.481c.582 0 .988-.171 1.224-.513.146-.211.22-.688.22-1.439v-8.97l-5.167 11.291-.317.001zM228.963 59.359v-.369h4.719v.369h-.504c-.527 0-.931.22-1.213.662-.138.203-.209.678-.209 1.422v5.432c0 1.342-.132 2.383-.4 3.124-.268.742-.792 1.377-1.574 1.906-.781.53-1.849.795-3.195.795-1.466 0-2.578-.255-3.337-.763-.761-.506-1.297-1.186-1.616-2.041-.211-.588-.316-1.687-.316-3.302v-5.231c0-.821-.111-1.36-.337-1.619-.226-.254-.588-.385-1.089-.385h-.499v-.369h5.747v.369h-.506c-.547 0-.939.175-1.175.523-.163.237-.244.729-.244 1.479v5.839c0 .522.049 1.12.146 1.791s.271 1.194.521 1.569.614.687 1.089.93c.473.244 1.056.363 1.743.363.882 0 1.67-.188 2.366-.57.693-.383 1.172-.871 1.427-1.469.254-.597.381-1.604.381-3.026v-5.427c0-.834-.093-1.356-.276-1.568-.257-.288-.638-.436-1.145-.436h-.503v.002zM233.615 58.99h3.638l8.203 10.027v-7.707c0-.82-.096-1.332-.28-1.537-.249-.275-.64-.414-1.173-.414h-.471v-.369h4.718v.369h-.48c-.574 0-.981.172-1.223.514-.147.212-.222.689-.222 1.438v11.319h-.356l-8.845-10.81v8.269c0 .822.09 1.336.271 1.537.252.276.644.415 1.173.415h.48v.369h-4.72v-.369h.473c.581 0 .991-.171 1.231-.512.146-.213.221-.689.221-1.44v-9.331c-.391-.457-.686-.758-.886-.902-.199-.146-.494-.279-.886-.404-.189-.061-.479-.092-.869-.092v-.37h.003zM252.75 59.729v5.273h2.898c.767 0 1.277-.115 1.536-.345.344-.298.535-.824.574-1.582h.369v4.665h-.369c-.092-.651-.184-1.071-.276-1.258-.12-.23-.314-.414-.585-.547-.271-.129-.687-.196-1.249-.196h-2.898v4.428c0 .595.024.954.079 1.084.051.127.144.231.273.308.132.074.38.112.747.112h2.257c.752 0 1.298-.053 1.641-.157.34-.104.666-.312.979-.625.405-.408.821-1.027 1.247-1.854h.422l-1.151 3.374h-10.316v-.369h.476c.317 0 .619-.075.903-.228.211-.104.355-.265.431-.479.077-.21.114-.643.114-1.297v-8.7c0-.854-.085-1.383-.257-1.581-.239-.266-.636-.398-1.191-.398h-.476v-.367h10.333l.133 2.953h-.395c-.14-.711-.291-1.195-.458-1.461-.167-.264-.416-.467-.743-.604-.263-.1-.725-.148-1.387-.148h-3.661v-.001z"/></svg>