<svg xmlns="http://www.w3.org/2000/svg" width="1200" height="192"><path fill="#79A3D0" fill-opacity=".05" d="M760.024-2.481c-6.697-2.178-13.841-1.616-20.117 1.58-.561.285-1.108.588-1.648.901h27.208c-1.696-1.017-3.516-1.854-5.443-2.481zM892.604 192h-18.334c5.955 1.309 12.209 1.356 18.334 0zM571.079-2.052c-.125.687-.267 1.369-.405 2.052h3.49c-.98-.75-2-1.449-3.085-2.052zM1179.815 107.453c-2.774 8.535-2.062 17.637 2.012 25.633 4.158 8.167 10.611 14.404 18.173 18.357v-24.585c-1.172-1.325-2.201-2.791-3.024-4.409-2.103-4.126-2.471-8.827-1.038-13.233.834-2.565 2.234-4.839 4.062-6.717v-16.054c-1.177.399-2.34.884-3.48 1.464-7.998 4.07-13.929 11.012-16.705 19.544zM558.763 50.763c-4.016 0-7.843-.799-11.359-2.213-11.655 13.988-26.94 25.261-45.156 32.135-22.031 8.314-45.979 7.551-67.437-2.149-9.518-4.302-18.034-10.141-25.296-17.223-5.312 4.686-10.842 9.095-16.574 13.22 4.325 11.767 11.043 22.638 19.966 31.976 17.073 17.869 40.088 28.019 64.797 28.582 38.685.877 73.521-16.93 95.885-45.142-1.27-14.372-.974-28.98.94-43.618-4.608 2.792-9.993 4.432-15.766 4.432zM768.144 192h36.865c-3.996-15.538-6.485-31.48-7.41-47.648-8.419 16.617-18.261 32.55-29.455 47.648zM1142.758 0c18.558 30.033 27.579 66.242 23.317 103.961-4.062 35.949-22.257 66.931-48.403 88.039h82.328v-34.852c-9.799-4.45-17.756-12.021-22.712-21.754-4.688-9.207-5.511-19.688-2.312-29.516 3.193-9.826 10.024-17.82 19.233-22.508 1.887-.961 3.826-1.704 5.791-2.251v-81.119h-57.242zM690.58 111.258c-13.881-18.462-19.743-41.225-16.505-64.095l16.804 2.379c-2.602 18.382 2.109 36.676 13.267 51.515 8.61 11.449 20.271 19.767 33.591 24.171 8.678-9.651 17.751-19.025 27.233-28.086 10.991-10.503 22.388-20.423 34.117-29.809 1.051-4.304 2.013-8.637 2.88-12.999-4.786 5.319-10.548 9.776-17.114 13.119-23.445 11.941-52.234 2.578-64.176-20.87-4.688-9.208-5.511-19.689-2.315-29.518 2.178-6.695 6.047-12.538 11.203-17.065h-105.524c.559 6.456.783 12.978.634 19.55-.747 32.89-12.522 62.973-31.675 86.844 5.144 26.897 16.393 52.474 33.334 75.004 2.752 3.659 5.63 7.19 8.613 10.603h52.076c11.732-18.429 24.702-36.165 38.879-53.099-13.875-5.863-26.028-15.285-35.322-27.644zM275.344 5.656c-5.066.995-10.151 1.439-15.197 1.378-3.853 14.594-6.021 29.742-6.373 45.213-.407 17.907 1.118 35.561 4.462 52.73 16.001 1.613 32.327.872 48.553-2.311 2.381-.465 4.74-.986 7.094-1.531-4.226-34.748-16.25-67.587-34.504-96.375-1.335.326-2.677.632-4.035.896zM599.219 16.556c-3.541 9.518-6.126 19.55-7.607 30.008-.727 5.132-1.222 10.259-1.516 15.376 5.543-13.269 8.781-27.749 9.128-42.97.018-.807-.011-1.608-.005-2.414zM947.39 180.322c-5.263-6.67-9.659-13.831-13.162-21.346-4.729 14.196-14.456 25.844-27.524 33.023h29.098c4.01-3.769 7.879-7.66 11.588-11.677zM840.854 172.031c-4.688-9.207-5.51-19.689-2.313-29.517 3.195-9.827 10.027-17.82 19.234-22.508 7.488-3.812 16.013-4.481 24.003-1.882 7.991 2.598 14.489 8.152 18.303 15.639 3.111 6.112 3.658 13.067 1.536 19.59-2.12 6.521-6.654 11.829-12.767 14.941-5.01 2.551-10.712 3-16.059 1.26-5.348-1.74-9.697-5.458-12.25-10.471-2.102-4.125-2.472-8.826-1.037-13.232 1.434-4.408 4.497-7.994 8.627-10.094 3.423-1.744 7.321-2.051 10.974-.863 3.657 1.188 6.631 3.73 8.376 7.155 3.008 5.905.648 13.157-5.258 16.164-4.973 2.534-11.083.546-13.618-4.428l4.536-2.313c1.261 2.477 4.299 3.464 6.771 2.205 3.405-1.733 4.765-5.915 3.03-9.318-1.127-2.213-3.049-3.855-5.411-4.623-2.359-.768-4.878-.568-7.091.559-2.917 1.485-5.081 4.018-6.095 7.132-1.013 3.112-.754 6.433.733 9.349 1.933 3.799 5.232 6.618 9.287 7.938 4.053 1.318 8.376.979 12.172-.956 4.901-2.495 8.537-6.748 10.236-11.978 1.7-5.229 1.263-10.806-1.232-15.703-6.597-12.955-22.501-18.128-35.458-11.531-7.995 4.07-13.927 11.01-16.702 19.543-2.776 8.535-2.062 17.638 2.01 25.633 6.021 11.822 16.834 19.633 28.878 22.279h18.334c3.438-.762 6.836-1.965 10.116-3.635 12.836-6.535 22.356-17.677 26.812-31.375.609-1.872 1.104-3.761 1.504-5.662-5.863-15.662-8.019-32.59-6.088-49.688 2.631-23.287 14.174-44.156 32.502-58.762 14.754-11.758 32.487-18.314 50.992-19.054.215-7.974.098-15.919-.34-23.823h-76.375c-21.726 8.581-42.85 18.694-63.219 30.329.371 8.104.01 16.3-1.151 24.509-3.97 28.027-18.614 52.832-41.238 69.843-3.836 2.884-7.833 5.462-11.944 7.773.215 20.287 3.066 40.269 8.421 59.546h37.414c-8.17-4.567-14.812-11.442-19.155-19.971zM578.98 121.531c-26.615 24.932-62.598 39.9-101.854 39.01-31.51-.717-60.854-13.661-82.626-36.445-10.093-10.564-17.967-22.668-23.474-35.74-8.454 4.642-17.237 8.729-26.312 12.213-.247 30.893 2.64 61.494 8.546 91.432h44.032c5.684-10.135 15.647-17.778 27.937-20.07 19.597-3.653 38.688 4.811 49.558 20.07h52.025c2.924-3.003 6.346-5.543 10.19-7.5 7.488-3.812 16.014-4.48 24.004-1.884 5.562 1.811 10.399 5.055 14.114 9.384h34.735c-.706-2.861-1.641-5.682-2.824-8.432-13.003-19.162-22.422-40.112-28.051-62.038zM747.046 127.619c.964.178 1.932.346 2.907.483 9.253 1.31 18.482 1.152 27.438-.365 7.206-14.911 13.196-30.392 17.897-46.321-8.342 6.999-16.511 14.268-24.455 21.859-8.244 7.879-16.16 16.01-23.787 24.344zM1021.768 139.133c23.14 2.613 44.093-14.086 46.709-37.227 1.646-14.576-2.481-28.92-11.623-40.39-8.22-10.314-19.614-17.179-32.423-19.66-.494 5.874-1.138 11.753-1.969 17.637-3.463 24.446-10.416 47.839-20.531 69.616 5.037 5.409 11.932 9.131 19.837 10.024zM849.704 15.376c-6.12 8.406-11.497 17.298-16.091 26.595 5.897-3.955 11.88-7.756 17.92-11.448-.261-5.105-.886-10.159-1.829-15.147zM1149.21 102.056c4.126-36.515-5.354-72.483-26.752-102.056h-97.362c.429 8.223.534 16.487.297 24.779 17.7 2.844 33.484 12.045 44.733 26.159 11.967 15.017 17.37 33.795 15.215 52.875-3.667 32.439-33.041 55.85-65.479 52.184-9.925-1.121-18.825-5.152-25.957-11.137-6.871 12.358-14.814 24.107-23.764 35.135 4.895 4.565 10.313 8.594 16.16 12.006h100.324c33.471-16.99 58.065-49.94 62.585-89.945zM976.617 101.736l16.865 1.906c-.075.654-.089 1.3-.122 1.949 5.778-15.49 9.923-31.717 12.296-48.48.767-5.414 1.364-10.826 1.828-16.232-14.319.912-28.002 6.141-39.459 15.27-14.782 11.782-24.091 28.613-26.215 47.396-2.648 23.451 3.958 45.848 16.893 63.547 9.018-11.398 16.902-23.603 23.562-36.475-4.643-8.535-6.819-18.513-5.648-28.881zM850.551 52.458c.567-4.005.905-8.005 1.051-11.99-8.176 5.11-16.23 10.448-24.131 16.054-2.824 14.883-6.643 29.482-11.422 43.723-.133 1.021-.269 2.041-.384 3.067-.322 2.854-.575 5.704-.794 8.552l1.047-.746c19-14.288 31.3-35.121 34.633-58.66zM747.573 144.908c-4.506-.639-8.905-1.628-13.179-2.924-13.534 15.967-25.969 32.672-37.278 50.016h38.577c12.205-14.48 22.967-29.93 32.206-46.169-6.719.333-13.516.041-20.326-.923zM558.763 45.671c6.452 0 12.335-2.434 16.825-6.403 1.633-9.446 4.07-18.569 7.232-27.306-1.651-4.802-4.704-8.939-8.656-11.962h-3.49c-3.247 16.074-10.078 31.255-19.945 44.353 2.529.843 5.224 1.318 8.034 1.318zM477.396 31.942c-9.65 3.643-20.138 3.31-29.536-.938-2.49-1.125-4.811-2.503-6.966-4.08-7.592 10.358-15.994 19.932-25.116 28.647 6.491 6.252 14.074 11.411 22.529 15.232 19.393 8.766 41.033 9.455 60.943 1.942 16.015-6.042 29.906-15.838 40.755-28.473-7.162-5.596-11.792-14.287-11.792-24.059 0-7.746 2.903-14.823 7.672-20.213h-29.559c-.662 2.45-1.515 4.867-2.582 7.225-5.193 11.488-14.552 20.268-26.348 24.717zM533.305 20.213c0 8.182 3.895 15.455 9.911 20.115 4.791-6.191 8.905-12.977 12.213-20.292 2.941-6.507 5.136-13.22 6.628-20.037h-18.747c-6.077 4.658-10.005 11.984-10.005 20.214zM445.79 19.984c1.718 1.271 3.569 2.386 5.563 3.287 7.334 3.313 15.518 3.574 23.045.731 9.679-3.65 17.354-10.852 21.613-20.274.554-1.226 1.038-2.47 1.459-3.729h-17.844c-2.244 5.335-6.579 9.779-12.408 11.98l-2.997-7.938c2.273-.859 4.167-2.283 5.603-4.042h-12.026c-3.538 6.673-7.442 13.202-11.714 19.558l-.294.427zM439.656 13.883c3.017-4.542 5.843-9.173 8.474-13.883h-13.987c.168 2.181.638 4.352 1.431 6.456 1.019 2.695 2.404 5.18 4.082 7.427zM909.767 0h-46.315c2.01 6.871 3.444 13.901 4.289 21.035 13.695-7.681 27.719-14.693 42.026-21.035zM587.705 0h-6.104c1.441 1.623 2.724 3.391 3.797 5.297.738-1.784 1.509-3.549 2.307-5.297zM396.585 26.335c3.206 8.501 7.756 16.242 13.413 23.014 8.963-8.573 17.203-18.009 24.626-28.231-2.956-3.408-5.35-7.32-6.987-11.667-1.162-3.077-1.825-6.259-2.005-9.451h-32.98c-.587 8.847.708 17.793 3.933 26.335zM833.014 9.56c2.245-3.255 4.604-6.437 7.049-9.56h-6.736l-.017 1.155c-.065 2.807-.164 5.61-.296 8.405zM779.902 8.317c3.112 6.112 3.657 13.067 1.537 19.589-2.121 6.522-6.654 11.83-12.768 14.942-5.011 2.551-10.713 2.998-16.06 1.259-5.346-1.74-9.697-5.458-12.248-10.47-2.104-4.126-2.472-8.827-1.039-13.233 1.435-4.408 4.498-7.994 8.629-10.094 3.421-1.745 7.319-2.052 10.974-.864 3.656 1.188 6.629 3.729 8.374 7.156 1.458 2.861 1.713 6.118.72 9.17-.993 3.053-3.116 5.538-5.976 6.994-4.975 2.534-11.083.546-13.618-4.428l4.536-2.313c1.26 2.476 4.298 3.464 6.771 2.205 1.649-.84 2.873-2.273 3.445-4.031.573-1.76.426-3.637-.414-5.287-1.127-2.213-3.05-3.856-5.411-4.623-2.36-.767-4.878-.568-7.091.559-2.918 1.485-5.083 4.017-6.097 7.131-1.011 3.113-.751 6.433.733 9.348 1.935 3.8 5.234 6.619 9.287 7.938 4.053 1.317 8.376.979 12.174-.956 4.9-2.495 8.535-6.748 10.236-11.979 1.698-5.227 1.263-10.804-1.234-15.703-2.274-4.47-5.697-8.112-9.896-10.629h-27.208c-7.162 4.153-12.475 10.707-15.056 18.642-2.774 8.535-2.062 17.637 2.012 25.633 10.667 20.945 36.383 29.311 57.328 18.644 8.944-4.554 16.272-11.349 21.404-19.684 2.253-13.997 3.583-28.236 3.909-42.657l.008-.577h-34.113c2.436 2.355 4.532 5.136 6.152 8.318zM332.458 36.91c1.769-12.494 4.14-24.805 7.074-36.91h-43.166c15.3 25.244 26.208 53.238 31.821 82.797.688-15.259 2.101-30.568 4.271-45.887zM191.352 92.746c11.853 20.881 16.349 44.963 12.641 69.056-1.662 10.803-5.267 20.988-10.539 30.198h70.477c-14.804-25.709-25.206-53.62-30.81-82.807-14.467-3.605-28.491-9.111-41.769-16.447zM314.751 109.648c-2.1.476-4.208.932-6.329 1.348-16.14 3.164-32.375 4.021-48.326 2.668 6.496 27.879 17.884 54.332 33.736 78.336h12.625c2.795-8.913 4.95-18.094 6.397-27.5 2.853-18.549 3.404-36.924 1.897-54.852zM426.785 180.272c-7.958 1.483-14.678 5.81-19.322 11.728h56.307c-9.286-9.488-22.982-14.339-36.985-11.728zM329.627 167.08c-1.305 8.483-3.146 16.797-5.46 24.92h11.795c-2.12-11.188-3.843-22.463-5.149-33.809-.347 2.961-.731 5.922-1.186 8.889zM49.12 192c-5.025-11.84-6.938-25.164-4.843-38.784 4.951-32.179 35.158-54.331 67.335-49.38 26.666 4.102 45.025 29.136 40.923 55.804l-16.773-2.581c2.678-17.417-9.311-33.768-26.731-36.447-22.927-3.527-44.451 12.255-47.98 35.184-1.948 12.665.532 25.332 6.999 36.205h104.985c7.403-9.418 12.313-20.616 14.184-32.779 3.668-23.829-2.166-47.658-16.422-67.099-14.258-19.443-35.234-32.168-59.064-35.834-30.346-4.669-60.693 2.76-85.452 20.916-10.331 7.573-19.153 16.648-26.281 26.847v87.948h49.12zM64.401.976c-5.008 2.55-10.711 2.997-16.059 1.259-1.685-.548-3.258-1.315-4.72-2.235h-23.776c.336.809.696 1.612 1.098 2.401 10.667 20.945 36.383 29.311 57.328 18.644 9.425-4.798 17.055-12.089 22.212-21.045h-34.378c-.557.339-1.117.676-1.705.976zM559.433 187.46c-6.697-2.177-13.841-1.617-20.118 1.579-1.69.86-3.282 1.856-4.778 2.961h33.291c-2.466-1.986-5.294-3.531-8.395-4.54zM178.248 74.369c1.544 1.117 3.083 2.24 4.672 3.308 15.125 10.17 31.517 17.641 48.598 22.321-2.471-15.823-3.566-31.98-3.194-48.329.384-16.889 2.678-33.438 6.753-49.414-1.784-.681-3.544-1.436-5.282-2.255h-108.857c7.968 20.791 20 39.618 35.484 55.537 8.031 5.222 15.373 11.527 21.826 18.832zM16.243 63.517c28.415-20.838 63.245-29.363 98.069-24.005 7.683 1.181 15.105 3.184 22.196 5.894-10.415-13.747-18.716-29.018-24.637-45.406h-5.608c-5.614 10.97-14.486 19.883-25.681 25.583-23.445 11.94-52.234 2.577-64.176-20.872-.782-1.537-1.447-3.112-2.013-4.711h-14.393v77.616c4.977-5.084 10.391-9.807 16.243-14.099zM344.88 91.375c7.946-3.204 15.657-6.886 23.092-11.023-4.329-12.851-6.442-26.493-6.123-40.454l25.451.579c-.199 8.727.832 17.288 2.968 25.511 4.635-3.432 9.119-7.071 13.462-10.893-6.377-7.562-11.49-16.233-15.085-25.762-3.592-9.516-5.071-19.474-4.496-29.332h-27.128c-3.271 12.858-5.874 25.966-7.761 39.292-2.462 17.393-3.895 34.776-4.38 52.082z"/></svg>